# File created by Blade
# Date/Time:  Tue Apr 07 20:53:11 2015
# Frame Rate: 120.000 fps
#------------------------------------------------------
:FULLY-SPECIFIED
:DEGREES
737
root 12.001015 36.917778 3.098824 13.921266 -36.234301 -237.129509
Spine 6.499348 -24.668883 19.803703
Head -55.422071 -13.892650 18.304042
LeftShoulder -11.519238 -23.136169 64.289044
LeftArm 72.204602 -37.694602 -67.153703
LeftForeArm -24.628145 -0.000000 16.197046
LeftHand 20.053014 -0.000000 72.874507
LeftHandThumb1 -26.253704 0.000000 33.147579
RightShoulder -23.275999 39.802501 -56.065131
RightArm 42.466529 33.937493 42.739399
RightForeArm -6.261790 0.000000 19.999755
RightHand 25.874135 -0.000000 -76.781105
RightHandThumb1 -24.326973 -0.000000 -32.862282
LeftUpLeg -0.221087 10.355924 12.563614
LeftLeg 16.684542 -0.000000 -0.000000
LeftFoot 37.703144 27.509964 -8.952239
LeftToeBase 17.943730 -0.000000 -0.000000
RightUpLeg -114.072419 -50.494051 6.677574
RightLeg -4.279569 -0.000000 0.000000
RightFoot 30.936444 -21.057313 -12.087706
RightToeBase -2.022975 -0.000000 0.000000
738
root 12.431354 36.718524 3.100689 13.854490 -36.261756 -238.553512
Spine 6.089123 -24.892345 19.934494
Head -54.518340 -14.084402 18.159662
LeftShoulder -10.439174 -20.507872 62.934770
LeftArm 75.283300 -37.786930 -68.012397
LeftForeArm -24.730352 -0.000000 15.360295
LeftHand 20.755140 -0.000000 68.999247
LeftHandThumb1 -26.253704 0.000000 33.147579
RightShoulder -21.078424 39.009576 -54.980879
RightArm 41.100292 33.991758 42.264930
RightForeArm -5.945602 -0.000000 20.724754
RightHand 25.948453 -0.000000 -76.312028
RightHandThumb1 -24.326973 -0.000000 -32.862282
LeftUpLeg -0.390699 10.780720 11.769645
LeftLeg 16.202525 -0.000000 -0.000000
LeftFoot 37.939205 27.297648 -9.073126
LeftToeBase 18.070166 -0.000000 -0.000000
RightUpLeg -112.957288 -50.296677 6.118717
RightLeg -4.175301 -0.000000 0.000000
RightFoot 30.894560 -21.919237 -11.688495
RightToeBase -2.741724 -0.000000 0.000000
739
root 12.869950 36.503417 3.097749 13.924829 -36.351866 -240.157073
Spine 5.641559 -25.015970 20.188115
Head -53.691003 -14.239879 17.987190
LeftShoulder -9.520177 -17.877431 61.629207
LeftArm 78.192529 -37.761027 -68.566757
LeftForeArm -24.956784 -0.000000 14.595419
LeftHand 20.763362 -0.000000 64.690303
LeftHandThumb1 -26.253704 0.000000 33.147579
RightShoulder -18.821281 38.249824 -53.896664
RightArm 39.608281 34.030550 41.664849
RightForeArm -5.607406 -0.000000 21.490418
RightHand 26.167787 0.000000 -75.730799
RightHandThumb1 -24.326973 -0.000000 -32.862282
LeftUpLeg -0.595886 11.127084 11.119365
LeftLeg 15.757249 -0.000000 -0.000000
LeftFoot 38.193629 26.935099 -9.094432
LeftToeBase 18.239554 -0.000000 -0.000000
RightUpLeg -111.731560 -50.022534 5.506112
RightLeg -3.624088 -0.000000 0.000000
RightFoot 30.453867 -23.068591 -11.779087
RightToeBase -9.310445 -0.000000 0.000000
740
root 13.312734 36.281959 3.096681 13.995522 -36.477393 -241.731476
Spine 5.172285 -25.084542 20.362772
Head -52.888478 -14.276363 17.829847
LeftShoulder -8.741955 -15.216005 60.402272
LeftArm 80.997718 -37.695219 -68.705321
LeftForeArm -25.396912 -0.000000 13.570132
LeftHand 21.395421 -0.000000 60.457594
LeftHandThumb1 -26.253704 0.000000 33.147579
RightShoulder -16.436019 37.242462 -52.713732
RightArm 38.080889 34.274947 41.033307
RightForeArm -5.214000 0.000000 22.394744
RightHand 26.305167 -0.000000 -74.842739
RightHandThumb1 -24.326973 -0.000000 -32.862282
LeftUpLeg -0.838411 11.363932 10.442745
LeftLeg 15.310861 -0.000000 -0.000000
LeftFoot 38.627716 26.622292 -9.012084
LeftToeBase 18.121059 -0.000000 -0.000000
RightUpLeg -110.285802 -49.805719 4.561826
RightLeg -2.489616 -0.000000 0.000000
RightFoot 29.653020 -24.475916 -11.648935
RightToeBase -19.374282 -0.000000 0.000000
741
root 13.754446 36.056509 3.094723 14.021938 -36.568075 -243.216960
Spine 4.605293 -25.203743 20.543112
Head -52.156522 -14.468694 17.401043
LeftShoulder -7.979225 -12.890515 59.148148
LeftArm 83.058022 -37.592031 -67.971984
LeftForeArm -26.000542 -0.000000 12.448060
LeftHand 21.254466 -0.000000 55.727056
LeftHandThumb1 -26.253704 0.000000 33.147579
RightShoulder -14.575864 36.879394 -52.060497
RightArm 36.545164 33.847539 40.695551
RightForeArm -4.976909 -0.000000 23.049403
RightHand 26.452820 -0.000000 -73.615983
RightHandThumb1 -24.326973 -0.000000 -32.862282
LeftUpLeg -1.144231 11.303805 9.720745
LeftLeg 14.913550 -0.000000 -0.000000
LeftFoot 38.972949 26.381134 -9.120463
LeftToeBase 17.973807 -0.000000 -0.000000
RightUpLeg -108.851869 -49.619886 3.577205
RightLeg -0.880421 -0.000000 0.000000
RightFoot 27.258380 -25.897230 -10.223487
RightToeBase -24.889016 -0.000000 0.000000
742
root 14.201913 35.825459 3.104512 14.019501 -36.794825 -244.674543
Spine 4.009063 -25.222592 20.649178
Head -51.389913 -14.683363 16.890896
LeftShoulder -7.191691 -10.571260 57.928969
LeftArm 84.821611 -37.618774 -66.894490
LeftForeArm -26.622618 0.000000 11.292096
LeftHand 21.395322 -0.000000 50.557816
LeftHandThumb1 -26.253704 0.000000 33.147579
RightShoulder -12.804623 36.560838 -51.542725
RightArm 35.094758 33.226860 40.477726
RightForeArm -4.771662 -0.000000 23.465941
RightHand 26.650542 -0.000000 -72.136575
RightHandThumb1 -24.326973 -0.000000 -32.862282
LeftUpLeg -1.383126 11.265910 8.968364
LeftLeg 14.460392 -0.000000 -0.000000
LeftFoot 39.293352 26.256857 -9.275799
LeftToeBase 17.971096 -0.000000 -0.000000
RightUpLeg -107.108143 -49.404147 2.294484
RightLeg 0.756140 -0.000000 -0.000000
RightFoot 23.709964 -26.717499 -8.944603
RightToeBase -25.409982 -0.000000 0.000000
743
root 14.646648 35.591899 3.109097 14.030488 -37.082929 -246.038658
Spine 3.372078 -25.118552 20.586533
Head -50.670059 -14.914882 16.508461
LeftShoulder -6.463523 -8.527917 57.107708
LeftArm 86.215195 -37.564905 -66.113877
LeftForeArm -27.030790 -0.000000 10.408630
LeftHand 21.529738 -0.000000 46.287146
LeftHandThumb1 -26.253704 0.000000 33.147579
RightShoulder -11.232169 36.109210 -50.957106
RightArm 33.990848 32.403666 40.300872
RightForeArm -4.414174 -0.000000 23.508442
RightHand 26.939044 -0.000000 -70.393434
RightHandThumb1 -24.326973 -0.000000 -32.862282
LeftUpLeg -1.711957 11.145884 8.156648
LeftLeg 13.988953 -0.000000 -0.000000
LeftFoot 39.626989 26.086284 -9.409531
LeftToeBase 17.996641 -0.000000 -0.000000
RightUpLeg -105.605020 -49.076687 1.363652
RightLeg 2.045452 -0.000000 -0.000000
RightFoot 20.070607 -26.746994 -8.289715
RightToeBase -24.663286 -0.000000 0.000000
744
root 15.089022 35.364242 3.117735 14.023829 -37.479504 -247.300816
Spine 2.654609 -25.018834 20.442643
Head -49.882965 -15.187568 15.921262
LeftShoulder -5.550639 -6.565714 56.262885
LeftArm 87.268450 -37.779912 -65.206972
LeftForeArm -27.169217 -0.000000 9.683512
LeftHand 21.550222 -0.000000 42.300073
LeftHandThumb1 -26.253704 0.000000 33.147579
RightShoulder -9.776105 35.693958 -50.516577
RightArm 33.215628 31.410914 40.376456
RightForeArm -4.108204 -0.000000 23.181802
RightHand 27.250266 0.000000 -68.338671
RightHandThumb1 -24.326973 -0.000000 -32.862282
LeftUpLeg -2.108236 11.060789 7.256037
LeftLeg 13.567307 -0.000000 -0.000000
LeftFoot 39.766988 26.174395 -9.643467
LeftToeBase 17.953644 -0.000000 -0.000000
RightUpLeg -104.121887 -48.614298 0.569999
RightLeg 2.667854 -0.000000 -0.000000
RightFoot 16.659082 -26.836320 -8.150177
RightToeBase -25.339513 -0.000000 0.000000
